<svg width="48" height="48" viewBox="0 0 48 48" fill="none" xmlns="http://www.w3.org/2000/svg">
<g clip-path="url(#clip0)">
<path d="M46.8207 25.03C37.5058 36.1639 21.1186 21.9486 12.1096 34.1567L11.5921 32.322V32.3141C9.79653 25.8925 8.00099 19.4683 6.20545 13.0415C6.03295 12.4299 5.8683 11.8183 5.6958 11.2067C14.7049 -1.00136 31.0999 13.214 40.4069 2.08007C40.8617 1.53121 41.2929 1.76644 41.1989 2.5662C41.1518 2.94255 41.0969 3.31891 41.0499 3.68743C40.5089 7.60782 39.8502 11.0891 39.0975 14.2411C38.8858 15.1271 38.6741 15.9818 38.4467 16.8207C38.4325 16.8801 38.422 16.9404 38.4154 17.0011C38.407 17.2208 38.4959 17.4331 38.6584 17.5813C40.9937 19.6999 43.5795 21.5247 46.3581 23.015C46.5776 23.1247 46.7893 23.2267 47.001 23.3207C47.3617 23.4776 47.2755 24.4812 46.8207 25.03Z" fill="#5F2EEA"/>
<path d="M46.8204 25.03C46.3106 25.6418 45.7464 26.206 45.1346 26.7158C36.6431 33.7647 23.7293 24.9751 15.026 31.2321H15.0182C13.9048 32.0526 12.9238 33.0389 12.1093 34.1567C11.9368 33.5451 10.5803 33.4746 10.4078 32.863V32.8551C10.3921 32.8003 10.3765 32.7532 10.3608 32.6983C8.58092 26.3316 6.80107 19.9597 5.02121 13.5825C4.84871 12.9709 5.86801 11.8183 5.69552 11.2067C9.68647 5.80444 15.1201 5.57706 20.742 6.03182C26.9127 6.54147 33.3186 7.87441 38.2896 4.10299C39.0724 3.51431 39.783 2.83531 40.4067 2.08007C40.8614 1.53121 41.2927 1.76644 41.1986 2.5662C41.1515 2.94255 41.0966 3.31891 41.0496 3.68743C40.5086 7.60782 39.85 11.0891 39.0972 14.2411C38.8855 15.1271 38.6738 15.9818 38.4465 16.8207C38.4322 16.8801 38.4217 16.9404 38.4151 17.0011C38.4067 17.2208 38.4956 17.4331 38.6582 17.5813C40.9934 19.6999 43.5792 21.5247 46.3578 23.015C46.5773 23.1247 46.789 23.2267 47.0007 23.3207C47.3614 23.4776 47.2752 24.4812 46.8204 25.03Z" fill="#DED3FF"/>
<path d="M45.2287 26.6062C45.1974 26.6454 45.166 26.6768 45.1346 26.716C36.6431 33.7648 23.7293 24.9753 15.026 31.2323H15.0182C13.3952 31.4832 13.45 33.9922 11.976 34.7528C10.1961 28.3861 6.80107 19.9572 5.02121 13.5827C4.84871 12.9711 5.86801 11.8185 5.69552 11.2069C9.68647 5.80461 15.1201 5.57723 20.742 6.03199C26.9127 6.54164 34.4477 7.16106 39.4187 3.38965C38.862 7.07481 37.7957 11.1285 37.0665 14.1942C36.8234 15.2135 36.5804 16.2015 36.3138 17.1659C36.2995 17.2332 36.289 17.3013 36.2824 17.3698C36.2694 17.6218 36.3701 17.8664 36.5568 18.0362C39.6853 20.757 41.9434 22.921 44.6956 24.2932C44.9465 24.4186 45.1895 24.5362 45.4326 24.6382C45.8482 24.8185 45.7462 25.9789 45.2287 26.6062Z" fill="#EFF0F7"/>
<path d="M3.16535 9.62077L3.27356 9.59055C3.75691 9.45553 4.27411 9.51805 4.71137 9.76437C5.14863 10.0107 5.47013 10.4206 5.60515 10.904L15.1729 45.1558C15.3978 45.961 14.9274 46.7962 14.1221 47.0211L13.2849 47.255C12.4797 47.4799 11.6445 47.0095 11.4196 46.2042L1.85186 11.9524C1.5707 10.9458 2.15874 9.90196 3.16528 9.62079L3.16535 9.62077Z" fill="#EFF0F7"/>
<path d="M13.2916 47.2593L14.1288 47.0254C14.1786 47.0089 14.2274 46.9898 14.2751 46.9681C14.0352 46.7722 13.8616 46.5069 13.7782 46.2086L4.20571 11.9532C3.99378 11.1893 4.28168 10.3744 4.92643 9.91314C4.45726 9.55214 3.84564 9.43277 3.27516 9.59089L3.16704 9.62107C2.16034 9.90236 1.57225 10.9464 1.85347 11.9532L11.426 46.2086C11.651 47.0139 12.4863 47.4844 13.2916 47.2593Z" fill="#EFF0F7"/>
<path d="M2.60877 11.7422L5.35226 21.5588L12.1816 45.997L10.6714 46.4196L3.84212 21.9807L1.09863 12.164L2.60877 11.7422Z" fill="#EFF0F7"/>
<path d="M2.90883 15.729C3.32502 15.6114 3.56812 15.1797 3.45298 14.7628L2.60892 11.7422L1.09863 12.1643L1.94269 15.1848C2.06029 15.6011 2.49194 15.8442 2.90883 15.729Z" fill="#5F2EEA"/>
<path d="M10.6712 46.4199L12.1815 45.9978L5.14129 20.804C5.0659 20.5342 4.8523 20.3252 4.58096 20.2556C4.30962 20.186 4.02176 20.2664 3.82581 20.4666C3.62987 20.6668 3.55561 20.9563 3.631 21.2261L10.6712 46.4199Z" fill="#5F2EEA"/>
<path d="M4.29723 17.7833C4.2385 17.5843 4.10692 17.4147 3.92872 17.3084L3.79017 17.2493C3.74004 17.2324 3.68788 17.2222 3.63508 17.2191C3.58605 17.2093 3.53583 17.207 3.4861 17.2121C3.43387 17.2175 3.38207 17.2266 3.33109 17.2392C3.13197 17.2977 2.96231 17.4294 2.8561 17.6077C2.65512 17.988 2.78676 18.459 3.15577 18.68C3.24699 18.728 3.34651 18.7581 3.44902 18.7689C3.55069 18.7823 3.654 18.7756 3.75308 18.7491C3.95455 18.6951 4.12576 18.5621 4.22813 18.3804C4.3305 18.1986 4.3554 17.9833 4.29723 17.783V17.7833Z" fill="#5F2EEA"/>
<path d="M12.8812 48.1004C11.8516 48.0976 10.9491 47.4112 10.6713 46.4198C10.5892 46.1479 10.6605 45.8528 10.8578 45.6485C11.0551 45.4441 11.3474 45.3624 11.622 45.4349C11.8967 45.5074 12.1106 45.7228 12.1813 45.9979C12.29 46.3857 12.6922 46.6123 13.0802 46.5044L13.9187 46.2701C14.3064 46.1611 14.5328 45.7588 14.4248 45.3707L4.85276 11.1151C4.6866 10.5262 4.07565 10.1824 3.48603 10.346L3.37885 10.3758C2.78961 10.5414 2.44519 11.1523 2.60849 11.7422C2.69134 12.0143 2.62033 12.3099 2.42293 12.5147C2.22553 12.7195 1.93271 12.8013 1.65775 12.7285C1.38278 12.6557 1.1688 12.4397 1.0986 12.1641C0.702883 10.7406 1.53374 9.26538 2.95615 8.86587L3.06412 8.83561C4.4875 8.44068 5.96226 9.27103 6.36274 10.6929L15.9348 44.9488C16.0989 45.5356 16.0232 46.1637 15.7242 46.6948C15.4253 47.2258 14.9275 47.6163 14.3406 47.7803L13.5022 48.0147C13.3 48.0712 13.0911 48.1 12.8812 48.1004Z" fill="#5F2EEA"/>
<path d="M12.1064 34.944C12.0589 34.944 12.0115 34.9396 11.9648 34.931C11.67 34.877 11.4318 34.6596 11.3514 34.3709L4.93762 11.4209C4.87266 11.1883 4.91842 10.9388 5.06166 10.7444C9.92388 4.15252 16.7807 4.83662 23.4125 5.49972C29.6354 6.12337 35.5129 6.70916 39.8038 1.57509C40.1197 1.07813 40.7415 0.871785 41.2919 1.08128C41.4871 1.16588 42.1158 1.52993 41.9756 2.65932C41.3779 7.50594 40.4515 12.3064 39.203 17.0274C41.6336 19.2572 44.3655 21.1343 47.3187 22.6036C47.6506 22.7599 47.8883 23.0648 47.9588 23.4248C48.0927 24.1702 47.8975 24.9371 47.4236 25.5278L47.4213 25.5309C42.5966 31.3008 36.0287 30.6457 29.6698 30.0102C23.1904 29.3632 17.0697 28.7502 12.7371 34.6255C12.5894 34.8258 12.3553 34.944 12.1064 34.944ZM6.55274 11.373L12.4545 32.4922C17.2332 27.1912 23.6291 27.8299 29.8259 28.4497C36.0465 29.0719 41.9248 29.6587 46.2165 24.5262C46.3449 24.3504 46.4218 24.1423 46.4386 23.9252C43.4275 22.3921 40.6378 20.4584 38.1456 18.1767C37.7094 17.7874 37.5322 17.1841 37.6885 16.6208C38.8429 12.2636 39.7155 7.83659 40.301 3.36726C35.5506 8.28806 29.3063 7.66323 23.2573 7.06027C16.8867 6.42383 10.8707 5.82205 6.55274 11.373ZM46.6709 24.0316L46.6866 24.0389L46.6709 24.0316Z" fill="#5F2EEA"/>
</g>
<defs>
<clipPath id="clip0">
<rect width="48" height="48" fill="white"/>
</clipPath>
</defs>
</svg>
