<svg width="73" height="73" viewBox="0 0 73 73" fill="none" xmlns="http://www.w3.org/2000/svg">
<g clip-path="url(#clip0)">
<path d="M71.2052 38.0663C57.0389 54.9991 32.1167 33.3799 18.4154 51.9464L17.6284 49.1561V49.1441C14.8977 39.378 12.1669 29.6078 9.43623 19.8337C9.17389 18.9036 8.92347 17.9734 8.66113 17.0433C22.3624 -1.52315 47.2966 20.096 61.451 3.16318C62.1426 2.32847 62.7985 2.6862 62.6554 3.9025C62.5838 4.47488 62.5004 5.04726 62.4288 5.60771C61.606 11.57 60.6043 16.8645 59.4596 21.6581C59.1376 23.0056 58.8157 24.3054 58.4699 25.5813C58.4482 25.6716 58.4323 25.7632 58.4222 25.8555C58.4094 26.1898 58.5447 26.5126 58.7918 26.738C62.3434 29.96 66.2759 32.7352 70.5017 35.0017C70.8356 35.1686 71.1576 35.3236 71.4795 35.4667C72.028 35.7052 71.8969 37.2315 71.2052 38.0663Z" fill="#5F2EEA"/>
<path d="M71.2051 38.0663C70.4299 38.9967 69.5717 39.8548 68.6413 40.63C55.7271 51.3502 36.0874 37.9828 22.8512 47.4986H22.8393C21.146 48.7464 19.654 50.2465 18.4153 51.9464C18.1529 51.0163 16.09 50.909 15.8276 49.9789V49.9669C15.8038 49.8835 15.7799 49.8119 15.7561 49.7284C13.0492 40.0457 10.3424 30.3551 7.6355 20.6565C7.37316 19.7263 8.92334 17.9734 8.661 17.0433C14.7306 8.82733 22.9943 8.48152 31.5442 9.17314C40.9288 9.94824 50.6711 11.9754 58.2312 6.23971C59.4217 5.34443 60.5024 4.31178 61.4509 3.16318C62.1425 2.32847 62.7983 2.6862 62.6552 3.9025C62.5837 4.47488 62.5002 5.04726 62.4287 5.60771C61.6059 11.57 60.6042 16.8645 59.4595 21.6581C59.1375 23.0056 58.8155 24.3054 58.4697 25.5813C58.4481 25.6716 58.4321 25.7632 58.422 25.8555C58.4093 26.1898 58.5445 26.5126 58.7917 26.738C62.3432 29.96 66.2757 32.7352 70.5016 35.0017C70.8355 35.1686 71.1574 35.3236 71.4794 35.4667C72.0279 35.7052 71.8967 37.2315 71.2051 38.0663Z" fill="#DED3FF"/>
<path d="M68.784 40.4633C68.7363 40.5229 68.6886 40.5706 68.6409 40.6302C55.7266 51.3504 36.0869 37.983 22.8507 47.4988H22.8388C20.3704 47.8803 20.4539 51.6962 18.2121 52.8529C15.5052 43.1702 10.3419 30.3513 7.63501 20.6567C7.37267 19.7266 8.92286 17.9736 8.66052 17.0435C14.7301 8.82754 22.9938 8.48173 31.5437 9.17335C40.9283 9.94844 52.3877 10.8905 59.9479 5.15479C59.1012 10.7593 57.4795 16.9243 56.3705 21.5868C56.0009 23.137 55.6312 24.6395 55.2258 26.1062C55.2041 26.2085 55.1881 26.312 55.1781 26.4162C55.1583 26.7995 55.3115 27.1715 55.5954 27.4298C60.3533 31.5676 63.7876 34.8588 67.9731 36.9456C68.3547 37.1364 68.7243 37.3152 69.094 37.4702C69.726 37.7445 69.571 39.5093 68.784 40.4633Z" fill="#EFF0F7"/>
<path d="M4.81286 14.6315L4.97741 14.5855C5.71252 14.3802 6.49909 14.4753 7.16409 14.8499C7.82909 15.2245 8.31804 15.8479 8.52338 16.583L23.0743 68.6743C23.4164 69.899 22.701 71.1691 21.4763 71.5112L20.203 71.8668C18.9784 72.2089 17.7083 71.4935 17.3662 70.2688L2.81526 18.1775C2.38766 16.6467 3.28196 15.0591 4.81274 14.6315L4.81286 14.6315Z" fill="#EFF0F7"/>
<path d="M20.2138 71.8734L21.4871 71.5176C21.5627 71.4925 21.6369 71.4635 21.7095 71.4305C21.3446 71.1325 21.0807 70.7291 20.9538 70.2754L6.39565 18.1786C6.07334 17.0169 6.5112 15.7775 7.49175 15.0761C6.77823 14.5271 5.84805 14.3455 4.98045 14.586L4.81601 14.6319C3.28499 15.0597 2.3906 16.6476 2.81829 18.1786L17.3765 70.2754C17.7187 71.5002 18.989 72.2156 20.2138 71.8734Z" fill="#EFF0F7"/>
<path d="M3.96756 17.8574L8.13995 32.7869L18.5262 69.9533L16.2295 70.596L5.84329 33.4285L1.6709 18.499L3.96756 17.8574Z" fill="#EFF0F7"/>
<path d="M4.42391 23.9207C5.05687 23.7418 5.42658 23.0854 5.25147 22.4513L3.9678 17.8574L1.6709 18.4993L2.95457 23.0931C3.13342 23.7261 3.78989 24.0959 4.42391 23.9207Z" fill="#5F2EEA"/>
<path d="M16.229 70.5965L18.5259 69.9546L7.81896 31.6391C7.70429 31.2288 7.37945 30.9108 6.96678 30.805C6.55412 30.6991 6.11633 30.8215 5.81833 31.1259C5.52033 31.4304 5.40739 31.8707 5.52206 32.281L16.229 70.5965Z" fill="#5F2EEA"/>
<path d="M6.53422 27.0446C6.44491 26.7419 6.24479 26.484 5.97377 26.3223L5.76307 26.2324C5.68682 26.2067 5.60751 26.1913 5.5272 26.1865C5.45263 26.1717 5.37626 26.1681 5.30063 26.1759C5.22119 26.1841 5.14242 26.1979 5.06489 26.217C4.76205 26.3061 4.50404 26.5063 4.3425 26.7775C4.03684 27.3558 4.23705 28.0722 4.79825 28.4083C4.93698 28.4813 5.08834 28.5272 5.24423 28.5435C5.39886 28.5639 5.55598 28.5537 5.70666 28.5135C6.01306 28.4312 6.27344 28.2291 6.42913 27.9526C6.58481 27.6762 6.62269 27.3488 6.53422 27.0441V27.0446Z" fill="#5F2EEA"/>
<path d="M19.5898 73.1522C18.0239 73.148 16.6514 72.1042 16.229 70.5963C16.1041 70.1828 16.2126 69.7341 16.5126 69.4233C16.8126 69.1126 17.2572 68.9883 17.6749 69.0986C18.0925 69.2088 18.4179 69.5363 18.5254 69.9547C18.6908 70.5445 19.3024 70.8891 19.8926 70.725L21.1676 70.3687C21.7574 70.2029 22.1017 69.5911 21.9374 69.001L7.37992 16.9038C7.12721 16.0082 6.19807 15.4853 5.30135 15.7341L5.13834 15.7796C4.24221 16.0314 3.7184 16.9604 3.96676 17.8575C4.09276 18.2713 3.98476 18.7209 3.68455 19.0324C3.38434 19.3438 2.939 19.4683 2.52083 19.3576C2.10266 19.2469 1.77723 18.9184 1.67046 18.4992C1.06864 16.3343 2.33224 14.0907 4.49549 13.4831L4.65969 13.4371C6.82441 12.8365 9.06728 14.0993 9.67634 16.2617L24.2338 68.3592C24.4835 69.2517 24.3683 70.2069 23.9136 71.0146C23.4589 71.8222 22.7019 72.4161 21.8093 72.6655L20.5342 73.0219C20.2268 73.1079 19.909 73.1518 19.5898 73.1522Z" fill="#5F2EEA"/>
<path d="M18.4118 53.1436C18.3396 53.1437 18.2675 53.1371 18.1964 53.1238C17.7481 53.0418 17.386 52.7111 17.2636 52.2721L7.50932 17.369C7.41054 17.0153 7.48012 16.6358 7.69797 16.3401C15.0926 6.31496 25.5207 7.35537 35.6065 8.36383C45.0705 9.31231 54.0092 10.2032 60.535 2.39513C61.0155 1.63933 61.9611 1.32551 62.7981 1.64412C63.095 1.77279 64.0511 2.32645 63.8379 4.04405C62.9289 11.415 61.5201 18.7156 59.6213 25.8955C63.3177 29.2867 67.4726 32.1415 71.9639 34.376C72.4686 34.6136 72.8301 35.0774 72.9374 35.6248C73.141 36.7585 72.8442 37.9248 72.1234 38.8232L72.1199 38.8279C64.7823 47.603 54.7936 46.6067 45.1228 45.6402C35.2688 44.6562 25.9601 43.724 19.371 52.6593C19.1464 52.9639 18.7903 53.1437 18.4118 53.1436ZM9.96566 17.2961L18.9412 49.415C26.2089 41.353 35.936 42.3243 45.3603 43.2669C54.8207 44.2131 63.7606 45.1057 70.2876 37.3C70.4829 37.0325 70.5998 36.716 70.6253 36.3859C66.046 34.0543 61.8033 31.1134 58.0131 27.6434C57.3498 27.0513 57.0803 26.1339 57.3179 25.2771C59.0736 18.6505 60.4008 11.9178 61.2912 5.12072C54.0666 12.6044 44.57 11.6542 35.3705 10.7372C25.6818 9.76926 16.5325 8.85405 9.96566 17.2961ZM70.9787 36.5478L71.0025 36.5588L70.9787 36.5478Z" fill="#5F2EEA"/>
</g>
<defs>
<clipPath id="clip0">
<rect width="73" height="73" fill="white"/>
</clipPath>
</defs>
</svg>
