<svg width="25" height="26" viewBox="0 0 25 26" fill="none" xmlns="http://www.w3.org/2000/svg">
<circle cx="12.5" cy="13" r="4" stroke="#14142B" stroke-width="2"/>
<path d="M10.7844 2.86293C11.561 1.56696 13.439 1.56696 14.2156 2.86293L14.9213 4.0407C15.3742 4.79649 16.2684 5.16686 17.1231 4.95268L18.4549 4.61892C19.9204 4.25166 21.2483 5.57958 20.8811 7.0451L20.5473 8.37695C20.3331 9.23162 20.7035 10.1258 21.4593 10.5787L22.6371 11.2844C23.933 12.061 23.933 13.939 22.6371 14.7156L21.4593 15.4213C20.7035 15.8742 20.3331 16.7684 20.5473 17.6231L20.8811 18.9549C21.2483 20.4204 19.9204 21.7483 18.4549 21.3811L17.1231 21.0473C16.2684 20.8331 15.3742 21.2035 14.9213 21.9593L14.2156 23.1371C13.439 24.433 11.561 24.433 10.7844 23.1371L10.0787 21.9593C9.62578 21.2035 8.73162 20.8331 7.87695 21.0473L6.54509 21.3811C5.07958 21.7483 3.75166 20.4204 4.11892 18.9549L4.45268 17.6231C4.66686 16.7684 4.29649 15.8742 3.54069 15.4213L2.36293 14.7156C1.06696 13.939 1.06696 12.061 2.36293 11.2844L3.5407 10.5787C4.29649 10.1258 4.66686 9.23162 4.45268 8.37695L4.11892 7.04509C3.75166 5.57958 5.07958 4.25166 6.5451 4.61892L7.87695 4.95268C8.73162 5.16686 9.62578 4.79649 10.0787 4.04069L10.7844 2.86293Z" stroke="#14142B" stroke-width="2"/>
</svg>
